<svg version="1.1" viewBox="0.0 0.0 265.0 432.501312335958" fill="none" stroke="none" stroke-linecap="square" stroke-miterlimit="10" xmlns:xlink="http://www.w3.org/1999/xlink" xmlns="http://www.w3.org/2000/svg"><clipPath id="p.0"><path d="m0 0l265.0 0l0 432.5013l-265.0 0l0 -432.5013z" clip-rule="nonzero"/></clipPath><g clip-path="url(#p.0)"><path fill="#000000" fill-opacity="0.0" d="m0 0l265.0 0l0 432.5013l-265.0 0z" fill-rule="evenodd"/><path fill="#bf9000" d="m0.7486877 12.706081l0 0c0 -1.2205601 0.98945874 -2.2100182 2.210018 -2.2100182l259.51697 0c0.5861206 0 1.1482544 0.23284054 1.5627136 0.6472988c0.41445923 0.41445923 0.64730835 0.9765854 0.64730835 1.5627193l0 8.839806c0 1.2205601 -0.98947144 2.2100182 -2.210022 2.2100182l-259.51697 0l0 0c-1.2205592 0 -2.210018 -0.9894581 -2.210018 -2.2100182z" fill-rule="evenodd"/><path stroke="#000000" stroke-width="1.0" stroke-linejoin="round" stroke-linecap="butt" d="m0.7486877 12.706081l0 0c0 -1.2205601 0.98945874 -2.2100182 2.210018 -2.2100182l259.51697 0c0.5861206 0 1.1482544 0.23284054 1.5627136 0.6472988c0.41445923 0.41445923 0.64730835 0.9765854 0.64730835 1.5627193l0 8.839806c0 1.2205601 -0.98947144 2.2100182 -2.210022 2.2100182l-259.51697 0l0 0c-1.2205592 0 -2.210018 -0.9894581 -2.210018 -2.2100182z" fill-rule="evenodd"/><path fill="#000a13" d="m21.96627 2.0009177l221.5032 0l0 343.2496l-110.7516 85.81238l-110.751595 -85.81238z" fill-rule="evenodd"/><path stroke="#f1c232" stroke-width="3.0" stroke-linejoin="round" stroke-linecap="butt" d="m21.96627 2.0009177l221.5032 0l0 343.2496l-110.7516 85.81238l-110.751595 -85.81238z" fill-rule="evenodd"/><path fill="#000000" fill-opacity="0.0" d="m31.33379 10.145843l0 331.41693" fill-rule="evenodd"/><path stroke="#f1c232" stroke-width="2.0" stroke-linejoin="round" stroke-linecap="butt" d="m31.33379 10.145843l0 331.41693" fill-rule="evenodd"/><path fill="#000000" fill-opacity="0.0" d="m31.14168 340.76852l101.32994 78.65637" fill-rule="evenodd"/><path stroke="#f1c232" stroke-width="2.0" stroke-linejoin="round" stroke-linecap="butt" d="m31.14168 340.76852l101.32994 78.65637" fill-rule="evenodd"/><path fill="#000000" fill-opacity="0.0" d="m234.24934 340.5013l-102.526886 79.51135" fill-rule="evenodd"/><path stroke="#f1c232" stroke-width="2.0" stroke-linejoin="round" stroke-linecap="butt" d="m234.24934 340.5013l-102.526886 79.51135" fill-rule="evenodd"/><path fill="#000000" fill-opacity="0.0" d="m234.0079 10.145843l0 330.86975" fill-rule="evenodd"/><path stroke="#f1c232" stroke-width="2.0" stroke-linejoin="round" stroke-linecap="butt" d="m234.0079 10.145843l0 330.86975" fill-rule="evenodd"/><path fill="#000000" fill-opacity="0.0" d="m31.33379 11.229506l201.9759 0" fill-rule="evenodd"/><path stroke="#f1c232" stroke-width="2.0" stroke-linejoin="round" stroke-linecap="butt" d="m31.33379 11.229506l201.9759 0" fill-rule="evenodd"/></g></svg>