<svg version="1.1" viewBox="0.0 0.0 238.81627296587928 100.0" fill="none" stroke="none" stroke-linecap="square" stroke-miterlimit="10" xmlns:xlink="http://www.w3.org/1999/xlink" xmlns="http://www.w3.org/2000/svg"><clipPath id="p.0"><path d="m0 0l238.81627 0l0 100.0l-238.81627 0l0 -100.0z" clip-rule="nonzero"/></clipPath><g clip-path="url(#p.0)"><path fill="#000000" fill-opacity="0.0" d="m0 0l238.81627 0l0 100.0l-238.81627 0z" fill-rule="evenodd"/><path fill="#000a13" d="m1.9274411 33.8682l37.882473 0l0 40.156017l-18.941236 10.039001l-18.941236 -10.039001z" fill-rule="evenodd"/><path stroke="#f1c232" stroke-width="1.0" stroke-linejoin="round" stroke-linecap="butt" d="m1.9274411 33.8682l37.882473 0l0 40.156017l-18.941236 10.039001l-18.941236 -10.039001z" fill-rule="evenodd"/><path fill="#000a13" d="m6.974961 37.034367l0 0c0 -7.681162 6.226813 -13.907974 13.907976 -13.907974l0 0c3.6886234 0 7.2261715 1.4653015 9.834423 4.073551c2.6082516 2.6082516 4.0735493 6.1458015 4.0735493 9.834423l0 0c0 7.681164 -6.2268105 13.907974 -13.907972 13.907974l0 0c-7.681163 0 -13.907976 -6.2268105 -13.907976 -13.907974z" fill-rule="evenodd"/><path stroke="#f1c232" stroke-width="1.0" stroke-linejoin="round" stroke-linecap="butt" d="m6.974961 37.034367l0 0c0 -7.681162 6.226813 -13.907974 13.907976 -13.907974l0 0c3.6886234 0 7.2261715 1.4653015 9.834423 4.073551c2.6082516 2.6082516 4.0735493 6.1458015 4.0735493 9.834423l0 0c0 7.681164 -6.2268105 13.907974 -13.907972 13.907974l0 0c-7.681163 0 -13.907976 -6.2268105 -13.907976 -13.907974z" fill-rule="evenodd"/><path fill="#000a13" d="m51.204628 24.132975l37.88247 0l0 40.156013l-18.941238 10.039001l-18.94123 -10.039001z" fill-rule="evenodd"/><path stroke="#f1c232" stroke-width="1.0" stroke-linejoin="round" stroke-linecap="butt" d="m51.204628 24.132975l37.88247 0l0 40.156013l-18.941238 10.039001l-18.94123 -10.039001z" fill-rule="evenodd"/><path fill="#000a13" d="m56.252148 27.299143l0 0c0 -7.681162 6.2268105 -13.907975 13.90797 -13.907975l0 0c3.6886292 0 7.2261734 1.4653006 9.834427 4.073552c2.6082535 2.6082497 4.0735474 6.1457977 4.0735474 9.834423l0 0c0 7.681162 -6.2268066 13.907976 -13.907974 13.907976l0 0c-7.68116 0 -13.90797 -6.2268143 -13.90797 -13.907976z" fill-rule="evenodd"/><path stroke="#f1c232" stroke-width="1.0" stroke-linejoin="round" stroke-linecap="butt" d="m56.252148 27.299143l0 0c0 -7.681162 6.2268105 -13.907975 13.90797 -13.907975l0 0c3.6886292 0 7.2261734 1.4653006 9.834427 4.073552c2.6082535 2.6082497 4.0735474 6.1457977 4.0735474 9.834423l0 0c0 7.681162 -6.2268066 13.907976 -13.907974 13.907976l0 0c-7.68116 0 -13.90797 -6.2268143 -13.90797 -13.907976z" fill-rule="evenodd"/><path fill="#000a13" d="m100.48181 12.586545l37.882477 0l0 40.156013l-18.941238 10.039005l-18.941238 -10.039005z" fill-rule="evenodd"/><path stroke="#f1c232" stroke-width="1.0" stroke-linejoin="round" stroke-linecap="butt" d="m100.48181 12.586545l37.882477 0l0 40.156013l-18.941238 10.039005l-18.941238 -10.039005z" fill-rule="evenodd"/><path fill="#000a13" d="m105.52933 15.752713l0 0c0 -7.681163 6.2268143 -13.907975 13.907974 -13.907975l0 0c3.6886292 0 7.2261734 1.4653004 9.834427 4.0735517c2.6082458 2.608251 4.0735474 6.145799 4.0735474 9.834423l0 0c0 7.681163 -6.2268066 13.907975 -13.907974 13.907975l0 0c-7.68116 0 -13.907974 -6.2268124 -13.907974 -13.907975z" fill-rule="evenodd"/><path stroke="#f1c232" stroke-width="1.0" stroke-linejoin="round" stroke-linecap="butt" d="m105.52933 15.752713l0 0c0 -7.681163 6.2268143 -13.907975 13.907974 -13.907975l0 0c3.6886292 0 7.2261734 1.4653004 9.834427 4.0735517c2.6082458 2.608251 4.0735474 6.145799 4.0735474 9.834423l0 0c0 7.681163 -6.2268066 13.907975 -13.907974 13.907975l0 0c-7.68116 0 -13.907974 -6.2268124 -13.907974 -13.907975z" fill-rule="evenodd"/><path fill="#000a13" d="m149.759 24.132975l37.88246 0l0 40.156013l-18.941238 10.039001l-18.941223 -10.039001z" fill-rule="evenodd"/><path stroke="#f1c232" stroke-width="1.0" stroke-linejoin="round" stroke-linecap="butt" d="m149.759 24.132975l37.88246 0l0 40.156013l-18.941238 10.039001l-18.941223 -10.039001z" fill-rule="evenodd"/><path fill="#000a13" d="m154.80652 27.299143l0 0c0 -7.681162 6.2268066 -13.907975 13.907974 -13.907975l0 0c3.6886292 0 7.226166 1.4653006 9.834427 4.073552c2.6082458 2.6082497 4.0735474 6.1457977 4.0735474 9.834423l0 0c0 7.681162 -6.2268066 13.907976 -13.907974 13.907976l0 0c-7.6811676 0 -13.907974 -6.2268143 -13.907974 -13.907976z" fill-rule="evenodd"/><path stroke="#f1c232" stroke-width="1.0" stroke-linejoin="round" stroke-linecap="butt" d="m154.80652 27.299143l0 0c0 -7.681162 6.2268066 -13.907975 13.907974 -13.907975l0 0c3.6886292 0 7.226166 1.4653006 9.834427 4.073552c2.6082458 2.6082497 4.0735474 6.1457977 4.0735474 9.834423l0 0c0 7.681162 -6.2268066 13.907976 -13.907974 13.907976l0 0c-7.6811676 0 -13.907974 -6.2268143 -13.907974 -13.907976z" fill-rule="evenodd"/><path fill="#000a13" d="m199.03618 33.8682l37.882477 0l0 40.156017l-18.941238 10.039001l-18.941238 -10.039001z" fill-rule="evenodd"/><path stroke="#f1c232" stroke-width="1.0" stroke-linejoin="round" stroke-linecap="butt" d="m199.03618 33.8682l37.882477 0l0 40.156017l-18.941238 10.039001l-18.941238 -10.039001z" fill-rule="evenodd"/><path fill="#000a13" d="m204.0837 37.034367l0 0c0 -7.681162 6.226822 -13.907974 13.907974 -13.907974l0 0c3.6886292 0 7.226181 1.4653015 9.834427 4.073551c2.608261 2.6082516 4.0735474 6.1458015 4.0735474 9.834423l0 0c0 7.681164 -6.2268066 13.907974 -13.907974 13.907974l0 0c-7.6811523 0 -13.907974 -6.2268105 -13.907974 -13.907974z" fill-rule="evenodd"/><path stroke="#f1c232" stroke-width="1.0" stroke-linejoin="round" stroke-linecap="butt" d="m204.0837 37.034367l0 0c0 -7.681162 6.226822 -13.907974 13.907974 -13.907974l0 0c3.6886292 0 7.226181 1.4653015 9.834427 4.073551c2.608261 2.6082516 4.0735474 6.1458015 4.0735474 9.834423l0 0c0 7.681164 -6.2268066 13.907974 -13.907974 13.907974l0 0c-7.6811523 0 -13.907974 -6.2268105 -13.907974 -13.907974z" fill-rule="evenodd"/><path fill="#000000" fill-opacity="0.0" d="m1.9269882 1.8451444l234.99213 0l0 75.43307l-234.99213 0z" fill-rule="evenodd"/><path fill="#ffffff" d="m103.196594 9.664179l4.296875 0l0 16.53125l4.46875 0l0 2.90625l-8.765625 0l0 -19.4375zm16.210098 19.71875q-3.15625 0 -4.5 -1.609375q-1.34375 -1.625 -1.34375 -4.796875l0 -7.21875q0 -3.171875 1.34375 -4.765625q1.34375 -1.59375 4.5 -1.59375q3.15625 0 4.515625 1.609375q1.359375 1.609375 1.359375 4.75l0 7.21875q0 3.171875 -1.359375 4.796875q-1.359375 1.609375 -4.515625 1.609375zm0 -3.046875q0.90625 0 1.1875 -0.609375q0.296875 -0.609375 0.296875 -1.671875l0 -9.359375q0 -1.078125 -0.296875 -1.671875q-0.28125 -0.609375 -1.1875 -0.609375q-0.875 0 -1.171875 0.625q-0.28125 0.609375 -0.28125 1.65625l0 9.359375q0 1.0625 0.265625 1.671875q0.265625 0.609375 1.1875 0.609375zm8.48584 -16.671875l4.296875 0l0 16.53125l4.46875 0l0 2.90625l-8.765625 0l0 -19.4375z" fill-rule="nonzero"/><path fill="#ffffff" d="m28.376848 44.125435l-3.890625 0l0 -4.265625l13.531248 0l0 4.265625l-3.875 0l0 21.65625l-5.765623 0l0 -21.65625zm11.911909 -4.265625l11.640625 0l0 3.90625l-5.921875 0l0 6.4375l4.515625 0l0 3.96875l-4.515625 0l0 7.734375l5.984375 0l0 3.875l-11.703125 0l0 -25.921875zm17.944656 0l6.53125 0l4.828125 25.921875l-5.28125 0l-0.859375 -5.46875l-3.8125 0l-0.890625 5.46875l-5.40625 0l4.890625 -25.921875zm4.671875 17.03125l-1.375 -10.125l-1.375 10.125l2.75 0zm9.663284 -17.03125l6.15625 0l2.84375 15.078125l3.078125 -15.078125l5.90625 0l0.453125 25.921875l-4.0625 0l-0.484375 -17.25l-3.0 17.25l-3.625 0l-3.1875 -17.375l-0.390625 17.375l-4.125 0l0.4375 -25.921875zm30.376312 0l6.75 0q2.53125 0 4.296875 0.53125q1.78125 0.53125 2.859375 2.03125q1.09375 1.5 1.09375 4.21875q0 2.3125 -1.0 3.59375q-0.984375 1.28125 -2.796875 1.625q2.234375 0.296875 3.421875 1.890625q1.1875 1.59375 1.1875 4.34375q0 7.6875 -7.84375 7.6875l-7.96875 0l0 -25.921875zm6.84375 10.375q1.828125 0 2.484375 -0.828125q0.65625 -0.84375 0.65625 -2.59375q0 -1.546875 -0.84375 -2.328125q-0.828125 -0.78125 -2.421875 -0.78125l-1.0 0l0 6.53125l1.125 0zm0.09375 11.546875q1.828125 0 2.578125 -0.90625q0.75 -0.921875 0.75 -2.875q0 -2.203125 -0.75 -3.09375q-0.75 -0.90625 -2.609375 -0.90625l-1.1875 0l0 7.78125l1.21875 0zm19.362915 4.390625q-2.90625 0 -4.609375 -0.9375q-1.6875 -0.953125 -2.375 -2.796875q-0.6875 -1.84375 -0.6875 -4.6875l0 -17.890625l5.65625 0l0 18.75q0 1.578125 0.390625 2.5q0.40625 0.921875 1.625 0.921875q1.21875 0 1.59375 -0.921875q0.390625 -0.921875 0.390625 -2.5l0 -18.75l5.703125 0l0 17.890625q0 2.84375 -0.703125 4.6875q-0.703125 1.84375 -2.390625 2.796875q-1.6875 0.9375 -4.59375 0.9375zm11.362915 -26.3125l5.734375 0l0 25.921875l-5.734375 0l0 -25.921875zm9.600769 0l5.71875 0l0 22.046875l5.953125 0l0 3.875l-11.671875 0l0 -25.921875zm14.176025 0l6.5625 0q3.359375 0 5.234375 0.84375q1.890625 0.828125 2.671875 2.609375q0.796875 1.765625 0.796875 4.734375l0 9.421875q0 3.0 -0.796875 4.796875q-0.78125 1.78125 -2.65625 2.65625q-1.859375 0.859375 -5.1875 0.859375l-6.625 0l0 -25.921875zm6.625 21.953125q1.25 0 1.828125 -0.359375q0.59375 -0.375 0.75 -1.0625q0.171875 -0.6875 0.171875 -2.03125l0 -11.296875q0 -1.25 -0.1875 -1.90625q-0.171875 -0.65625 -0.765625 -0.96875q-0.578125 -0.328125 -1.828125 -0.328125l-0.875 0l0 17.953125l0.90625 0zm12.127045 -21.953125l11.640625 0l0 3.90625l-5.921875 0l0 6.4375l4.515625 0l0 3.96875l-4.515625 0l0 7.734375l5.984375 0l0 3.875l-11.703125 0l0 -25.921875zm14.304031 0l7.140625 0q4.25 0 6.421875 1.515625q2.171875 1.5 2.171875 5.328125q0 2.59375 -0.671875 4.140625q-0.671875 1.53125 -2.484375 2.390625l3.546875 12.546875l-5.921875 0l-2.84375 -11.609375l-1.640625 0l0 11.609375l-5.71875 0l0 -25.921875zm7.328125 11.015625q1.71875 0 2.40625 -0.90625q0.703125 -0.921875 0.703125 -2.75q0 -1.75 -0.640625 -2.625q-0.640625 -0.890625 -2.21875 -0.890625l-1.859375 0l0 7.171875l1.609375 0z" fill-rule="nonzero"/></g></svg>